<!-- Generated by IcoMoon.io -->
<svg version="1.1" xmlns="http://www.w3.org/2000/svg" width="45" height="32" viewBox="0 0 45 32">
<title>envelope-tabl</title>
<path fill="#757575" d="M40.602 0h-36.4c-2.317 0-4.202 1.792-4.202 4v24c0 2.208 1.885 4 4.202 4h36.4c2.31 0 4.198-1.792 4.198-4v-24c0-2.208-1.885-4-4.202-4zM40.602 2.666c0.189 0 0.368 0.038 0.534 0.106l-18.736 15.466-18.736-15.466c0.158-0.066 0.342-0.104 0.534-0.106h36.401zM40.602 29.334h-36.4c-0.010 0-0.021 0-0.032 0-0.744 0-1.35-0.593-1.369-1.333l-0-0.002v-22.413l18.682 15.421c0.247 0.206 0.568 0.331 0.918 0.331s0.671-0.125 0.921-0.333l-0.002 0.002 18.682-15.421v22.413c0 0.736-0.627 1.334-1.402 1.334z"></path>
</svg>
