<!-- Generated by IcoMoon.io -->
<svg version="1.1" xmlns="http://www.w3.org/2000/svg" width="23" height="32" viewBox="0 0 23 32">
<title>smartphone-tabl</title>
<path fill="#757575" d="M19.429 0h-16c-1.89 0-3.429 1.346-3.429 3.001v25.998c0 1.657 1.538 3.001 3.429 3.001h16c1.89 0 3.429-1.346 3.429-3.001v-25.998c0-1.655-1.538-3.001-3.429-3.001zM3.429 2h16c0.631 0 1.143 0.448 1.143 1.001v20.999h-18.286v-21.001c0-0.549 0.512-0.999 1.143-0.999zM19.429 30h-16c-0.631 0-1.143-0.448-1.143-1.001v-2.999h18.286v3.001c0 0.549-0.512 0.999-1.143 0.999z"></path>
<path fill="#757575" d="M5.381 27.291c0.206 0.169 0.337 0.424 0.337 0.709s-0.13 0.54-0.335 0.707l-0.002 0.001c-0.217 0.183-0.5 0.294-0.809 0.294s-0.592-0.111-0.811-0.295l0.002 0.002c-0.206-0.169-0.337-0.424-0.337-0.709s0.13-0.54 0.335-0.707l0.002-0.001c0.217-0.183 0.5-0.294 0.809-0.294s0.592 0.111 0.811 0.295l-0.002-0.002z"></path>
</svg>
